<mxfile host="Electron" modified="2024-07-30T19:32:45.302Z" agent="Mozilla/5.0 (Windows NT 10.0; Win64; x64) AppleWebKit/537.36 (KHTML, like Gecko) draw.io/22.1.16 Chrome/120.0.6099.109 Electron/28.1.0 Safari/537.36" etag="MPph716WcKP6XD5Zyjb4" version="22.1.16" type="device">
  <diagram name="Page-1" id="K5J8Ddg9XvgDQG0GK9Fa">
    <mxGraphModel dx="1418" dy="940" grid="1" gridSize="10" guides="1" tooltips="1" connect="1" arrows="1" fold="1" page="1" pageScale="1" pageWidth="819" pageHeight="300" math="0" shadow="0">
      <root>
        <mxCell id="0" />
        <mxCell id="1" parent="0" />
        <mxCell id="AqM7mLemEHicZTpyW4dL-1" value="" style="endArrow=classic;html=1;rounded=0;" parent="1" edge="1">
          <mxGeometry width="50" height="50" relative="1" as="geometry">
            <mxPoint x="50" y="260" as="sourcePoint" />
            <mxPoint x="50" y="30" as="targetPoint" />
          </mxGeometry>
        </mxCell>
        <mxCell id="AqM7mLemEHicZTpyW4dL-2" value="" style="endArrow=classic;html=1;rounded=0;" parent="1" edge="1">
          <mxGeometry width="50" height="50" relative="1" as="geometry">
            <mxPoint x="50" y="260" as="sourcePoint" />
            <mxPoint x="690" y="260" as="targetPoint" />
          </mxGeometry>
        </mxCell>
        <mxCell id="AqM7mLemEHicZTpyW4dL-3" value="" style="curved=1;endArrow=none;html=1;rounded=0;endFill=0;strokeWidth=2;" parent="1" edge="1">
          <mxGeometry width="50" height="50" relative="1" as="geometry">
            <mxPoint x="50" y="260" as="sourcePoint" />
            <mxPoint x="680" y="80" as="targetPoint" />
            <Array as="points">
              <mxPoint x="100" y="260" />
              <mxPoint x="200" y="-50" />
              <mxPoint x="290" y="290" />
              <mxPoint x="520" y="90" />
            </Array>
          </mxGeometry>
        </mxCell>
        <mxCell id="AqM7mLemEHicZTpyW4dL-4" value="" style="endArrow=none;dashed=1;html=1;dashPattern=1 3;strokeWidth=2;rounded=0;" parent="1" edge="1">
          <mxGeometry width="50" height="50" relative="1" as="geometry">
            <mxPoint x="50" y="70" as="sourcePoint" />
            <mxPoint x="680" y="70" as="targetPoint" />
          </mxGeometry>
        </mxCell>
        <mxCell id="AqM7mLemEHicZTpyW4dL-5" value="Montagne de l&#39;ignorance" style="text;strokeColor=none;align=center;fillColor=none;html=1;verticalAlign=middle;whiteSpace=wrap;rounded=0;" parent="1" vertex="1">
          <mxGeometry x="240" y="20" width="60" height="30" as="geometry" />
        </mxCell>
        <mxCell id="AqM7mLemEHicZTpyW4dL-6" value="Vallée de l&#39;humilité&lt;br&gt;(du désespoir)" style="text;strokeColor=none;align=center;fillColor=none;html=1;verticalAlign=middle;whiteSpace=wrap;rounded=0;" parent="1" vertex="1">
          <mxGeometry x="280" y="170" width="110" height="30" as="geometry" />
        </mxCell>
        <mxCell id="AqM7mLemEHicZTpyW4dL-7" value="Chute de la réalité" style="text;strokeColor=none;align=center;fillColor=none;html=1;verticalAlign=middle;whiteSpace=wrap;rounded=0;" parent="1" vertex="1">
          <mxGeometry x="250" y="110" width="60" height="30" as="geometry" />
        </mxCell>
        <mxCell id="AqM7mLemEHicZTpyW4dL-8" value="Montée de l&#39;apprentissage" style="text;strokeColor=none;align=center;fillColor=none;html=1;verticalAlign=middle;whiteSpace=wrap;rounded=0;" parent="1" vertex="1">
          <mxGeometry x="490" y="140" width="100" height="30" as="geometry" />
        </mxCell>
        <mxCell id="AqM7mLemEHicZTpyW4dL-9" value="Plateau de la consolidation" style="text;strokeColor=none;align=center;fillColor=none;html=1;verticalAlign=middle;whiteSpace=wrap;rounded=0;" parent="1" vertex="1">
          <mxGeometry x="640" y="30" width="100" height="30" as="geometry" />
        </mxCell>
        <mxCell id="AqM7mLemEHicZTpyW4dL-10" value="Compétence" style="text;strokeColor=none;align=center;fillColor=none;html=1;verticalAlign=middle;whiteSpace=wrap;rounded=0;" parent="1" vertex="1">
          <mxGeometry x="330" y="260" width="60" height="30" as="geometry" />
        </mxCell>
        <mxCell id="AqM7mLemEHicZTpyW4dL-11" value="Confiance" style="text;strokeColor=none;align=center;fillColor=none;html=1;verticalAlign=middle;whiteSpace=wrap;rounded=0;rotation=-90;" parent="1" vertex="1">
          <mxGeometry y="120" width="60" height="30" as="geometry" />
        </mxCell>
        <mxCell id="AqM7mLemEHicZTpyW4dL-12" value="" style="shape=stencil(lVnZbhsxDPwavxK6qOM5Tf8jQJzGaJoESXr9fWdraLui1mP0zXXFUDxmOJQP8eb98e71eAju/ePt5evx5+n+4/EQPx1COD0/Ht9OH/h0iLeHePPw8nb88vby/fn+/O/Xu+Xk8unby4/lL/w620XJuhgF9/v8RXAS/d9vPp/PP52eN+dVmhvPq/hy+XwT54fzMUglf9970TAYJC8pEYMoNQ0GGiQpMUAIeTDIUSIJwRcbcwn9m12DJYVjUksVJUGjCm4MumSJlRioaLFX0kYMqrTRQ0YaSJailzwaaBNPgo7opGLr4Ejhova6biqdmUGR0MZecqL5sgH+Xhw9hCQpEoMkqtZDYx6yBGdjaKTSqdg66JrofYPW4bIaVCmkW5H1MNYhJ1o4VSlxNCgSSS/hAsl4AMpJWjPqYDxkigcAMpgsJdqtCFHHLKUonhQO3V9MayDRBHHIiR+v5DMtXAbkx6BLd7l7vrjemv28k0IiKMmykhNHylxK5+k1ACeVOcB96zQaSMQguTjeCCSipC9g0Ea4LYhlV0KNJvQ40hfVix89ZACalLlGWwW0amEetKNxLbPv3LxvUC3tFe1R7U9QlEmth0Dw2aIlJQXrsBkdbQzKebKlaTj4TiL7BjoNB9crs2+QpRpibT0N+wal8+7GAwN0q737VwNQBiGl1vqwWQ0yxQMM2tR8VCu1XqYNdQeCBxiYOoB1GO21CXHopcQNrDKJVL+hcM3QXuLNBwA1a1B585l5hSsxsYT2tgBy3edFAI0QXSYiq3TopLKVlKxbIfhGA6irwCGqRuUq5VZkKRo8hK6sL9XBGrju81Kl09gaC0TJBAJEjbqCByY00HwWcRA3LK2tj49Nlige2kQCta8T+7uAW6fsWmq+DMCFGaOYKEwi7hswDxBT45UqZOkVQIzNhG6prPucBcQmD/tTLnfNubrA+kBqjcEbsr0T00sVXDreCZOVNccigEyaOA1gLhs9U1bYXpJkzoiHRINe9kiDOc4bYGszIaCYmDyBgdVkjo6Usk7NtdSNanXkpIyFwzbLqGzZVMcsYXUsTFdOa9yydrG0uj7TNjTApC72F7ugKBWimAd1FnFsQYEAGqdcTbRwYBXDAgBhJgYYIGYrA8yv7H2G+zDGAjMIdmeqjY52zAODadCCu7JOGzHd+DodO742q2giMQAubiL8KwbF7Cj8LSe2SQu4vjruG6y0tRVxJK0x2+0YzccQF6eFoAbJLAZnMV0LVX1hetZAL7GlZnmIGQsHdZCYB2cF0KLHCRljPY/Gg1Ju9auKXINW7gFr2MjeGACezd0uIjcqka2Kxb7NYi1jmm9aRVPpr6/7ZZ541dHzWKYNcScqTEBYY0KXN0J63rBw9PT1zdmBjr5l9DJJt7BuN5fOmzcivXIfg0tkuJE55exTdwABk/o6u1oFLmC8fcvAKGeSylvmwnlPzgcrz3GevvhOT2iNPu3/728T18/jw78fQh5OT0/n31G2/29/OMFX5x9d4u0f);lineShape=1;strokeColor=default;" parent="1" vertex="1">
          <mxGeometry x="171.15668395525552" y="49.19106905928038" width="53.313694092897485" height="14.832698782740538" as="geometry" />
        </mxCell>
        <mxCell id="AqM7mLemEHicZTpyW4dL-13" value="" style="shape=stencil(lVnbchs3DP0avWJIghfwOU3/IzNxak1dO+O4t7/v2Wq4WYLSsfUmaXFEgAAOLnvSTz8ev3x/OKXw4+315feHv89f3x5P+ssppfPz48Pr+Q2fTvr5pJ++vbw+/Pb68ufz18v37182ye3THy9/bf/wzwUXpNcNlMK/lx9ildr+/+XXi/zT+fkgn6SWWT5J0tvyWbpO8lVauS2+Px3iKjXfFjevPczpt8VjlJidfAhEXkWTk8/E2Ji9Pkm6EfkmYf7/Lq0SeZM2y0cAiEKbfTbfJyxIBBAlOQd0UeIBWJjbBMhNOrlTRESeTyiZGo2YiPOlli6V2WAS5xOqSou3Abp7dQc0ycRoTdL6BGhBEjFaiwQHiGJMpeYjryXqabgpRw8wksg5igYPKCyT1SdP24PlOiCLzUZX5Cu51ozsn6O1FinkWrN5uqiBslcJ0uZoLUUSCb6ShsY7IEghwYf/C/O1wirGSaWKzTbg3gqzYTEangnkBNxJdypF6ST4kC46x1IOYuSWKlI0eEBlKq02hOH7q4C2MDdsiMSGpp7IchrEcx2Qh5sOfqgk+FodLHRkPmJ0M9H5hC0ciUoWPCB3SmSWlltqo/5eB6jYzHy5iDJAGcR4uFZG99ZGuhwLCvG07SVwB1RagXqSMKsEto1EpZ4luaII3xM/9OZJQHdquw6wETkHlSo7oUucPY0CYBzg+jDkAyMyAPriaUb3MQTPZAjXRKIPR5gr1Lgm5oguZeYZcJsRnQBwKtVIixwcoa6ioKFkNrSRYAcAPQEt3FxRauInVJ8QaGc6O6EOotsBlbbcvXi+L3GUvQ8C8m7VB1XK9xqtdue16jtGN98ab0l9V2ggR+kJS/BBJXrCEt4ocuGuBEIJCoT6ruQoWiI2MK00UPZi/0GiKWB0wt8rlVU+lK1kiZSLDLDQMQD38fd7gKVCbADGZCi8ugDYtYZR03YAug3C32Z+zkLTxWyw6m3AjJJZ85BH5BxHDnYCHjtAoaGBfqa5kaPxFgsk4Www2jygJ3MDOE5ggxm6PjcQwGh6QvLtyTbUsK4v+L4SwyXz9NobA6BsZ1J91wdAYSfoGDAONtAJIo5L3AFo4tjY1H2BwDXQoQbNtHk/sHa97C3bDtiXL9cBGJIcwKQQqkTRdGsEUz7vLgUCvWxkE3X1NQvEwwrENpHMKoHa6PYt+RIEemY9HCqUuv1e4DsyFHJVf4SRDEKZdZ4DIJPoU4SrAxjftixLzV7pRJDMb1tA6KzBT4sN4Gc2v257zDnlEExsQk5pRMIhXBlXbqvJJYMqWz7aaM4PnSuL79h8Cdr6SrauRAly82ukY1AsPkcVNrAhRf0yMVU6ckTMC7Ontw01a2d8vwR5dqvm3YZQYVxcxlZvl2+06KpnAI104xWX0bXQyI7L5FrpKnTdF0OeOACpmbw+bDYJY644tPWF6L/wFyKIbUCCXy6DPBh7Bb9sgMeZf5cGPVW6two+A34yxy3956yHR5Tfzywf+TomLO97GiW6e98nvS+PDz9fXn07Pz1d3n0dn/uXXfjp8qJMP/8H);lineShape=1;strokeColor=default;" parent="1" vertex="1">
          <mxGeometry x="287.73853155178745" y="206.04116371689236" width="86.90161671497572" height="12.346883449193617" as="geometry" />
        </mxCell>
        <mxCell id="AqM7mLemEHicZTpyW4dL-25" value="" style="shape=stencil(lVjZUhtBDPwav6rmPp4J+Q+qMMEVgikg19+nN67ZXWnXTfFmlukZHS1Naw7x5u3x7uV4CO7t/fX8/fj7dP/+eIhfDiGcnh+Pr6d3/DrE20O8eTi/Hr+9nn8+31/+frmbVk6/fpx/TTv8ueBak1gnVHB/L196k5z+f/l6ATydnteAIj1oQJHiCSBJKhqQxpn7AC++aUCQEK8DahWnfWhdSieAICVrQKEmFcTEnBAkOQIoUrXTtUvPBJAlGECVzADR5qFmcYUA4LT2oX7gg5ekAQVhJXkozvqAMDSSh9zFdQ2AV4R8uVqncWYnJmVwU3MpN/HE6ZwlRQ3Ig477AJBZcymDraQecpSofUhdIouSl66jlAqlRnZSkgZEqQQAA7wxyY/M7AOqJB3W2KQQ8qUs1QBQcSQPaUPvmMSRPMDi5jQgiCMnxDnqAxB4icLipk0KVSqJ0mSxroeAMBC2RnQ+Y1KURrgU0L11poMfgd4HZNuMfR9e7QOCZO20n2twF+ARJXNCom3Gh+HiDPCjaHcB3Sa6S2Z9T7yuz0qJhx6mm16QTm4GNzi2LA8kOk6STrAfhbQfG6l6dyeN8UeyXR5ZN93uzi6QZtmM5YSb3tnG6GhfBA9MX3T0tvHoadXEkqkE0DAns57dNdN6U71UVMAe0x6iJO5v0uFPH8Uzma4+PlxJly9meWGXxmhlq+XEGlCtmeWMat7mCsEixjjJ0Sxn1JmJuGQq0ZoNmpiwjnW0QatluSOuhuHZQmNW4mnol2W5Z1rXtidHL7k+krjanbk6R2JlPIkkOB+LjQ3jcLLThuc19dn1bfT2hZaN5crZ6M+31/76aOVko/IT2yVze/pBvv2ycvZym0LAVEy0gwYu4MAAmEzMdduowIVOykaU8EaecAUaURKGrrkmDs3Ah7QFpibbpuAL5WneNBQkrjDAfOvPHQhU4XODmUGRGTo3gGkGkIeR+4Bm+3+s9AIrG22SeDVj4DNRggpnagYjZdtMJo4Bku0XSCWTV2U7jnGBi4mz6IrDgMYyjdHeGUDlerLbmkagE3G6zsxZTblMEWMuj7oe4FVg7xlxyMLVpM7yULNEXUAVYSVcqsXOb5X3pdo27xmFqvra7RiALdig0bztS9PDEXuIynZobfx2aN2OY40PfB0lr0u0uzE+7QOKrQdswcRFb/blqmduUrdtpleaae82bQOHsvaNI4x0nKwknQwAI8DwxZFbEfuZkgOAaWv4GKMFVKaTih1uAGD9vif7mrYK3DVyhO0RLK7edtclmfsAtyFHp5q/beQhAEzGtzYKZpXqzmbGTz8vfwzAj+U1++H09HR5DF//375+49Pl5Tze/gM=);lineShape=1;strokeColor=default;" parent="1" vertex="1">
          <mxGeometry x="628.31" y="66" width="7.27" height="19.39" as="geometry" />
        </mxCell>
        <mxCell id="AqM7mLemEHicZTpyW4dL-26" value="" style="shape=stencil(lVjbUhsxDP2avGokW749U/ofzBBKppQwgd7+vnIzXtba5DC8hUVn19bl6Ei7ePP6ePey3wV+fTsdv+9/H+7fHnfxyy6Ew/Pj/nR4s1+7eLuLNw/H0/7b6fjz+f7898tdt+y/fhx/9Tf8OeNapSodFfjv+UmgGv4/+Hq2fzo8r+2VcpzslZIAeyaZ7TM18P6aSdJk3ygzsBdqPNlLoFKuA0olnj8gmQI4UbELOkCjqgBgHpyvHGQ8uQxgfwdzKgNAbsRtBmSK4A45U3FRbiQIoCQzIAYKIA5ZSGcvxUSarwNSpVJnwJKKlwF2xflIGkgaAERqZQakccjLAPFe0gqTTy035zjYKxQcyd4nc6T7ISsAZMp5BmQYOLtimN1qjmbgVl3KZSlQGa+4DOAR1wVgyQIqzuIa3RcyVeClmCmFGdBgekf1cShCCX0hkM5fKBYHALByqe4LmRR4KRTiOQ5lKdrLAB0sNACd2sCljVSKzgClAljDaMsxXy0wvY0YXWoYmwf0BR1OXAABVpxECnMuWX9RkEsiG4ClN6AZYSrJAwo4UqMyV2iz3AN3rsMjK/sCDpQHQazsIQN4Auj2wEOB2vY8oFvJSOP1fUFS8IjP2p/QntnbIz7iQW+LffngPNXZG2WC+wbijb2A98dRIot9gv5MFJu3R0VWKMjGHuSDNcns7RFzWQFI9RdGzGUl5j1UYMsxQGQPQBrSjtTckSolxCvs26YlqYAirqMEV/YoKYrXU73IwIGsyc5FILzk+ZUs2lYZ0pAL9a/skZq6xHKoefDmwsZjwKE8anYV4gTO/1n7bVWaAkaagrJjoQBzNHlFYZ2MYUIU14zt/KgvMUXXWxXTbvA1YO0eiSJJVOcv2CTTUOfbMIVJFgEASzrXakwUFaRA1M9qJrsUVEGfUmaACbsAmoEVsqsbk46oW8ZNOzBxihRIjH66y4sbrorTucH2SQZEOm6HhAQVhYoXpzYkBJB8av92XzA+QGOIzUFu0CmQLrT4Lqg6xrdrk5FjYLtVQgUqXmBHLOySegrrUwCa7rIX2FGgsrC4OrdaOgqIdObBoQsgjZn12tDs9HLfvoBI50jVbQoYqoVsxDfHwWghAS9lU1sOgPVUr2C3HlG8gBHvVuNCxHzGQjpXXJcoCFB9Nylws1CD77aK7avfdeDdiPWmPNszJWQf/fsZNmfrlbE6ewZJ0TYaFYuXLhiDtwe1bL3e0cuyBLxsX72AZEiQpoVYnX1GO8g2lgHv9g35s/l8EHielfh7B6BJvIs/tyHEDmq+AgJcM316qfuhvf143yA/HJ6ezgvo9f/9xtkenbfV8fYf);lineShape=1;strokeColor=default;" parent="1" vertex="1">
          <mxGeometry x="619.43" y="66" width="9.8" height="21.2" as="geometry" />
        </mxCell>
        <mxCell id="AqM7mLemEHicZTpyW4dL-27" value="" style="shape=stencil(lVhJcttADHyNrqjZl7Pj/MNVlmNVHMslO9vv04wyNAGSnfJNC3o42BoNHuLN6+Pdy/EQ3Ovb5fz1+PN0//Z4iJ8OIZyeH4+X0xs+HeLtId48nC/HL5fz9+f76/eXu8ly+vTt/GM64dcV58S5CRTc7+sPvUqNf3/5fLV/Oj0v7L1EY5+k9H37ILVoeye17dsnqfr8ViSR84vEqO2TuLpv38Qbey8lEH/dCMcA1CLdEUAQnzUgSSoEECV3DfDSics+S2wKULokdiXcOGkAfvEEsIpSgQ8kqr5L8BoAHzIpCydBXyl3ieQJKLx/F5gBSTIpVFSe0z5kT50GIGhAQlhJqQKQdB5SFkcyHaJ47XTy4hkgiddPiJU7XVaAKC0RQJOsAaFLJ0+IIABd3iFTAojJhhWpLCTTcNFrCkA5BkYZblTODJg7ZBsQJRhAHM/cBjRLAl0aqe4cLYtVeqHiJOmgopDI+ej3HnRMKak2nK8Lz9GcNdzfG/tAWqdVe/95rGzady+hGHsWf8yYas9nnYkZlrW/6DNC8h3cU4x9J13j3WpsBmmkkftM0HNf0oTBgWK4SApJAALUtAN5RHgvAeY+aGJScEiwmVF5zPW9Amq2oDObyk7yqgFIgdY2iPY9PqzBMLNLMPHPpCBgH7W/YfDktn219uA4Zt/H498Lms2mhsfbhomkQNtqDqBgiT1EmbMN78gU6HGUy+I+rMHKmlAaq/82/l7Ek9Rn3yDEzO2rJojICaWNcC/qjZ2f7f0zVaUftUe/NDtgOqs39KMdYMy+YOCZCQl1xCZStAnwiTIcRl4xFF1pyWVQkJEFfUydbcCsD+eaCIPFtgHeXinw3QOyoOsuiI4uE6nYOQN1RAHJLhOxUYmZIAR0HiAx2faBv+2kwehgV/JDmixkMuPGtKrVHMZ6savnDAC1xCRmt+yCYmHtiSB2sxtA0BH+hSY15V0g/kmUYhmyewagoxkgW4Yv0ABEE0HYdw2obhTLNiBY1VsDJVUUc9NhrZnKKJCK2Q0wF9mYnVjLbOOORmlqSO00JmNi+02wqy+kDFMWk7I0TImNh+/KTlM3yNwzQLFhxXRhifMr1gCgMHmarRzHvHOkRcHVZt+fBCt7ZxHsNj5NVOaDs3tm53tms+2w0Nw7L4KM5J8eQG6UrCKcPGDbvmUA2GeW5o37eJI0Zx1Gkis5fxZ0C/tAAvrRF33/t8eH97eKD6enp+tLyeX/9i0kfrq+wYy3fwA=);lineShape=1;strokeColor=default;" parent="1" vertex="1">
          <mxGeometry x="628.200816716955" y="46.99576793372011" width="4.9312203663902645" height="20.235518233996004" as="geometry" />
        </mxCell>
        <mxCell id="AqM7mLemEHicZTpyW4dL-28" value="" style="shape=stencil(lVjZbhsxDPwavxKiqIN6TtP/CBCnNurGgeP0+Pty62qz4mInyJtjcyINOby0k7vXw8PLfhfD6/Vy/r7/dXy8HnbyZRfj8fmwvxyv9mkn9zu5ezpf9t8u57fnx9vfLw+T5fTpx/nn9B9+33DMlNqEiuHP/2+I078vvt7sT8fnpX2mHAd7IQ3b9jFSHO0r5QLslVoZ78Mk4EKSqYwHcKKWtwFJKDiAndkAoHSGHTD5CHDOyfsoZgqAdFYqOgIqxboNKJE0jYBGmQGgUBs5CJMCQA1U6ghIFAQALK4yApQC8JJK/7kDElMFcdBK4gCZKjihMYVR26lB8TXpPumALFSA+JqJbySdKxRfMw6jWy2UEcShKcnIwUIJr9SIxwSyUDbkpda9PgOMFfASh+Ajp4EiiJwdoaO+1VIEkVDS0a+qlBEJy5cxISz4GQUiUckjIMEctRsHd4J5Gpyg3JWwACC51kZJPaApAFhhaisA4FATpdWVCuBQIyX2gAAKU2UvDQslkoaJU0a5TimCAdlxKJQQaV4BTN8oDtJr70IaKIPqqicaIAF5V+1SWwAi0lLwdcYAAuKg0bdRA1SgJZO3a3LmpQTqvWZq1cchogQqvY8vIs2o3mdSd4LCvmscCntAi9BL1ZFusC5ZHEQ8AJ1gXbGOpBfVc0tMcXUEipzJNawAMOXYtxRzE2qLlnK+MFUqHyS1O6FQxTnKjsMc/K3C5BMiE6N55rOAKeWcmBiWDZtn3KSrDbb29x44AwoxSursm5wJOCF9G8UxcFZ5GFcB5yVTV0ZXEt/ZC24QBuAx5YoVV5Ry7EeBEkhxreQxDrngeq+9bs2AiJN6NfXZXIniYPJuo5dsckVDXNHVbBxJwAk2ReaRg03faIjLuf+/xXyP2mjmTnEGRLijpOrdKgFOWLaY8WoLQnGw1S+6xUyogivZzpNWm1wBTS6mnpBz+bY1B1Q++7m4em8ZAjhM+/dImj/wElW3ccDZJHhz6e1lw9x7tOM3zIM3RxUv+NWE+967Ye5WUIbzwuolw7iDOmEZo84czZ3ih5EA30my31XNVWg/77pdmKNe0928uAwQWfPz6Tx0byx4vr6ZJ8HlP/2G9KG9fXh/sHo6nk63967l7/6By766PY7J/V8=);lineShape=1;strokeColor=default;" parent="1" vertex="1">
          <mxGeometry x="632.9960966595393" y="46.99624011925059" width="6.887563631011849" height="19.16591517105513" as="geometry" />
        </mxCell>
        <mxCell id="AqM7mLemEHicZTpyW4dL-29" value="" style="shape=stencil(lVjLctswDPwaXzEk+AB5TtP/yEyc2lM3zjju6+8L1UPZgKxNe5MtQCSA3QXITXp43z29bTcc3s+n49ftz/3zebdJnzbM+9fd9rQ/69MmPW7Sw8vxtP1yOn5/fb78fnuaLKenb8cf0xd+Xfx6p5gmLw6/L/9kivz3j88X+8P+9da+UG/GvlJF9kwsxr5T6+v2rRMHYx+ZagYOlThah0KlAQemlq2D5iCuO4i+tiEzUwcxSKHYrYOMT9x3iD7oFCmAFapQYuuQqSbgkChU69CIy7pD6RRs3XKkCrJUMjW7Qs6w0iWQ2DrkRhnEkOt4PRyKgqsCB6ZoVygzWO46aE6CrUMNI9H3HbKvdM0UkINW2tFHYAzcqNhKS6AKsMSFxPJBMmUQtIK52rSKrinrDkoXt4JSSkDQsZLYLClpO6h0zCMns2goWABa47yB2SGRoBUCdRtDlyFUaw7JYqk36NAXIXQorOJzpPYoqdXzM4Yw0HufDZSCX6ADYVVYFG9fUA2Iu09QA8jWhDZfAbSf4LnZFUQg3uCpqa2rgf2Hsfpsr/qFiEZRvD1qI8nLnUIUCirl7u0zyI8MPb/9PgCQVocX+0cs1gIsEwQEXh2kLSoAEDGR0qW0DpquORSXI8UQqHGn6hbAGG2UnEpgDugstCA9wvSMsH8lcVqAbhbjFVLKgvQIpMH3gg9ULvixouN2FrxqaYUjwNA9ewb5YT8Xdc0AGhG8SLQ2aLdSYN/J8pDJFcCJ3X8LuM3wonvXkeL7DsXTWIdJQaxsQzVvJhDUKhVDDqQ640QQAy/GX52iUJI0S8EGXQSzIHkp0kmwgywloeJOOQ0OFHkRdM5QKXQ4de1MP4Fi0PG3WAfdZEMOeUjPzcyPxKg0D77pVAHUqDIVC41pKgGVrhq0XUEJhc4tOrs6QZ0YDsCns6sb4XWYjKgLykJSGTK6RV+HDg9GSng3J8yiv3agjTZkbeNoblQJs1DFONIuHywsFFhgP2rfk7NnUAFt8m5SDhBE0wVB9vZo/3Uw92ofkb0s95OQArehbld7JHfaIB2mIzwzqn1zFxaQMzcdfubAkI61BXpx9uj2Qe3d4J7GlLRm/383QB/a68P1uullfzhcbqtu3/vrKf3rcrWVHv8A);lineShape=1;strokeColor=default;" parent="1" vertex="1">
          <mxGeometry x="621.99533022484" y="46.99518150960527" width="9.98894978811747" height="16.692229759820695" as="geometry" />
        </mxCell>
        <mxCell id="AqM7mLemEHicZTpyW4dL-30" value="" style="shape=stencil(rVrLbhw3EPwaXQmy+T47zn8YsBwLcSxDlvP4+xQjcDQs7tbKQG72ijVDspvV1cW5i+++f/7w7f7O/Pfnp8ff7/96+Pj8+S7+cmf28PXz/dPDM/51F9/fxXefHp/uf3t6/PH148v/v30YI8e//nj8czzh7xdcqq7WgTL/z8svrbtc/vvl1xfAl4evZ0B3ZQV071K7Dsjmcl4BwXkFyK6nDZAFoM/nnaZk4g0luE6Lbq6bACSXbQVUl5MA4M9+BWRX+nVA9VscogZEF+kN5qwKQHZt3aV2vPMyANvaF0BtrsXrgBZcXt9QqwsiDlhiDSsgOxOLxibWsgLMNRE4hKmuu1S66yKXkP22vgGhTGKXkGr8huRaEABzngDBNS8BdY1DbnJbAegESDI1BiCugOCC2CUA8npEE6YkWAMnOBAguSQAiENZ15BAAgrQOA6x6VyqvK0xTeK5BvDrEY3gETWljcisuaKyNc1UOwDZJZFLOPJ5PUAWXRBvwJnOa6QtSKqsxZV1DaG7JlKjpjmBA4BFi/SuSI01cAGsIWimNBdXmgllRuYyILu8Rjog0mJbi7mybmsAGYtIowIZTckmj1yrcYmm5PUbzCWqorPCXCvTRhXLRRG2VPj5VRaHFDmRQJPi8CQ/j/tpvAhBrM6256vx0fX2M+MxH+PxYj/xZ2JtXRYsucj7rw4mjiEpjC7JCIeK9AIyTqkqnJFEOY2iIDICfw6UokVuUQizFJ+oQp18pHxa99RMCgzkNLFdmVG8TI8cYzwhik2tXHOiyUOzF4QiD2VxbT0DOBWSuFyjohldEyVtH980k3LARtnXz6fxSCG93jVeucpDsI/vU8m8bT4lSnFXZxtxjC9TE18Z3zfxWJVS2/SvSYGAE2NrAg2RrgCROx1IctUljEK30ugQ6SLlcMYbAZLMIZxxKhzQSar0gekKMSMaDUHVoFKiie7lsUfcKA6Qn1HEGTouUE9rMlGhFElsDkUsFo1y1jIDqmqzA+fqAKgCnqbafSsgu7gBVMmBRIi0S3GqmMuAQ8cdgCT5FwASal3r3+FerIzRi0xvABKlBh4hIo1FEwf0dgvgV5LvXfojiIOPDFBmBIpAtw2g3mBb8nUpNpF8fZuSOqIAUNeMXVKVDYWvb4FTVHkBkGf/9tYpJVfULu2Ljq6qbN23NUoJdiFwpkX2nho2S/xbky/Kzv9Ceqf5zrceoHwLsB9R5V5cIIGqW5edZppmDRDZdkRVyRpU2RigPJ6djIP3s4H4vxCoEIknpdRS3LywAVBFK16gAaU20FRR7w+AivVr03gKXREJDi1AnTmSo6s+LLDmBsALdoWe4TqaJQ1AMVVadJrG6TVNxq1ekIFDZ0d6BopJ8QYaq7wuumlLpfGhviH6jiJ7UpWmzsNk3pNsVY2GMSsNX1jFgHcUwjuK+XveUAh7xRieLSo0DlnM388UO8abLLieeT43KSf38XneyrxtPvnmfNZTNm59xP57NkdAsapR2sebbJw9l7XYbuw/neGYb6z3QuOvSGLK2JOx4BVtsfttWar/zcDHL1KKuEjeTpsn6LKbuBmiRSqX6sqab0HbzCCgsEoj/GIKYNwUVqmBQ+b7tay9qcZGORagek4/jZZjATKh8Tiy47x0+geDZhqv5rPblV4K8t0O1WJit1tviA/P/rWezy59vbzNSdv9qZd2aw5sd+trjZz4+Sbt63Hjtp7gKO8dy2ZyZGm2ljTr21ExpCItlW9/qywY1U8d9mpHK3OgbkZTlzcmtXDFCEEyKAQAURwooOrLZdrRoGUWJAw5WSANdXM17vdoSpCnakrbdwdBX8qMW9C1jpn2aNDuEfGOvFAOeWTlZ7pz78clwJHYQZaO0e6ti0ZtlW/ITEXDDFNr2FpMtDpRTalxUzDoRt1G9xnXs15RcehMX1nz+6l5O3nlqosdHeUaOXCODHVnyobIVJ34sGTWRZQs2wg06pHe0OWBGA4LXSLabLWv5XfdDHD1qU/3/PVR1d9CtMZTal56wa3MK40DoK3dFjcD/ManDX7m2gEostvCEolcx9dHCpC3fq5Ja/e1XTpZ7FXdkPet0zfZQaFhooIFqpJ38HFrq7P8JqX4zTcq0vvKdbtXKPL2JUcWhQMgShBIIm3el+yTK8uqQbfK5Tz6mrP5oDqFzEJguJzamKLPZIalqKTbbm/oyg4A3yuYjPQA0KLDlNPXAGxaeu02p9lunQDqymlsKx1R7a0BwBZKn1XsmmlJHgQAisgAKNsbVBlF8pEGHQAt0n/y29HbAPzj9VPVTw9fvrx86Xr+O3/aip9ePouN7/8F);lineShape=1;strokeColor=default;" parent="1" vertex="1">
          <mxGeometry x="623.0016474984275" y="30.998761565272535" width="17.767435150900695" height="16.808987788916387" as="geometry" />
        </mxCell>
      </root>
    </mxGraphModel>
  </diagram>
</mxfile>
